<svg 
 xmlns="http://www.w3.org/2000/svg"
 xmlns:xlink="http://www.w3.org/1999/xlink"
 width="42px" height="30px">
<path fill-rule="evenodd"  fill="rgb(33, 33, 33)"
 d="M39.510,24.369 C40.611,24.369 41.522,25.272 41.522,26.372 C41.522,27.509 40.611,28.412 39.510,28.412 L10.358,28.412 C9.257,28.412 8.346,27.509 8.346,26.372 C8.346,25.272 9.257,24.369 10.358,24.369 L39.510,24.369 ZM2.576,0.722 C4.018,0.722 5.158,1.897 5.158,3.300 C5.158,4.741 4.018,5.879 2.576,5.879 C1.172,5.879 -0.005,4.741 -0.005,3.300 C-0.005,1.897 1.172,0.722 2.576,0.722 L2.576,0.722 ZM10.358,5.631 C9.257,5.631 8.346,4.709 8.346,3.609 C8.346,2.509 9.257,1.587 10.358,1.587 L39.510,1.587 C40.611,1.587 41.522,2.509 41.522,3.609 C41.522,4.709 40.611,5.631 39.510,5.631 L10.358,5.631 ZM10.358,17.761 C9.257,17.761 8.346,16.840 8.346,15.739 C8.346,14.640 9.257,13.718 10.358,13.718 L39.510,13.718 C40.611,13.718 41.522,14.640 41.522,15.739 C41.522,16.840 40.611,17.761 39.510,17.761 L10.358,17.761 ZM2.576,12.440 C4.018,12.440 5.158,13.578 5.158,15.019 C5.158,16.422 4.018,17.598 2.576,17.598 C1.172,17.598 -0.005,16.422 -0.005,15.019 C-0.005,13.578 1.172,12.440 2.576,12.440 L2.576,12.440 ZM2.576,24.121 C4.018,24.121 5.158,25.296 5.158,26.700 C5.158,28.141 4.018,29.278 2.576,29.278 C1.172,29.278 -0.005,28.141 -0.005,26.700 C-0.005,25.296 1.172,24.121 2.576,24.121 L2.576,24.121 Z"/>
</svg>
